:SAMPLES-PER-SECOND 30
:FULLY-SPECIFIED
:DEGREES
408
root  -6.46083 34.2344 -21.3441 12.8723 79.9017 5.61853
RightUpLeg  -16.9165 -5.03759 -8.4598
RightLeg  11.4088 12.6167 1.70096
RightFoot  9.43411 -0.134042 2.09184
RightToes  -35.7985 -0.18582 -0.290179
Spine  -1.54732 -2.22312 1.22172
Spine1  -3.10482 -4.83376 3.18529
HEad  -59.1544 4.49458 15.4375
LeftShoulder1  -1.94126e-019 -3.10601e-018 -2.51263e-017
LeftArm  4.23566 20.3625 -85.6258
LeftForeArm  32.6354 -34.3505 -5.76846
LeftHand  -0.353061 -1.54221 6.07825
RightShoulder  -4.96962e-017 0 -2.36833e-017
RightArm  -40.1796 -30.1377 68.443
RightForeArm  58.8764 10.1706 1.53914
RightHand  -0.270162 -2.1658 -9.46535
LeftUpLeg  -9.9409 13.758 -5.30061
LeftLeg  15.8574 25.3328 5.27247
LeftFoot  -3.85939 -0.0655488 -1.78374
LeftToes  -8.24805 1.46665e-006 1.03344e-007
409
root  -6.38569 34.271 -21.1254 14.3468 82.3728 6.87543
RightUpLeg  -16.1464 -6.92485 -8.03111
RightLeg  11.0697 12.094 1.55929
RightFoot  9.10846 -0.116758 1.93617
RightToes  -35.5702 -0.184098 -0.288757
Spine  -1.62764 -1.93298 1.28134
Spine1  -3.27196 -4.18863 3.2255
HEad  -60.4562 2.89536 15.5682
LeftShoulder1  -1.94126e-019 -3.10601e-018 -2.51263e-017
LeftArm  3.99266 20.8386 -85.4916
LeftForeArm  32.3476 -34.0357 -5.70325
LeftHand  -0.373366 -1.64882 6.33022
RightShoulder  -4.96962e-017 0 -2.36833e-017
RightArm  -40.3517 -28.6484 66.732
RightForeArm  60.2519 9.53752 1.51484
RightHand  -0.250508 -2.53159 -9.82172
LeftUpLeg  -9.90355 12.6703 -4.72856
LeftLeg  15.3092 24.0739 4.79594
LeftFoot  -3.29855 -0.0458031 -1.42907
LeftToes  -9.18619 1.46665e-006 1.03344e-007
410
root  -6.34637 34.3134 -20.8699 15.7792 84.9365 8.10187
RightUpLeg  -15.3584 -8.23346 -7.41907
RightLeg  10.5973 10.8232 1.30739
RightFoot  8.91772 -0.095418 1.70103
RightToes  -34.3286 -0.174836 -0.280897
Spine  -1.70767 -1.70319 1.36164
Spine1  -3.44254 -3.65296 3.31659
HEad  -61.6626 1.42336 15.9004
LeftShoulder1  -1.94126e-019 -3.10601e-018 -2.51263e-017
LeftArm  2.46213 21.4713 -85.228
LeftForeArm  32.5633 -33.2601 -5.49441
LeftHand  -0.33522 -1.74976 5.62686
RightShoulder  -4.96962e-017 0 -2.36833e-017
RightArm  -40.7518 -27.1132 65.3725
RightForeArm  61.3104 9.10266 1.48382
RightHand  -0.244893 -2.73851 -10.3144
LeftUpLeg  -10.0557 11.5388 -3.96902
LeftLeg  15.0002 22.7912 4.43155
LeftFoot  -2.69742 -0.0293952 -1.0869
LeftToes  -10.343 1.46665e-006 1.03344e-007
411
root  -6.25455 34.3598 -20.6179 21.0388 87.1839 13.3025
RightUpLeg  -14.4882 -9.47721 -6.96144
RightLeg  10.2018 9.81049 1.11799
RightFoot  8.63489 -0.0768334 1.50057
RightToes  -32.6715 -0.162743 -0.270098
Spine  -1.71385 -1.36446 1.32185
Spine1  -3.45735 -2.91397 3.17671
HEad  -62.9339 -0.131143 16.2154
LeftShoulder1  -1.94126e-019 -3.10601e-018 -2.51263e-017
LeftArm  1.15258 21.7302 -84.4758
LeftForeArm  32.4636 -31.8745 -5.16084
LeftHand  -0.357981 -1.86871 5.90867
RightShoulder  -4.96962e-017 0 -2.36833e-017
RightArm  -41.4468 -25.7724 64.6314
RightForeArm  61.6342 9.05629 1.48027
RightHand  -0.224641 -3.10295 -10.8696
LeftUpLeg  -9.85063 10.4757 -3.33377
LeftLeg  14.3695 21.7382 3.99649
LeftFoot  -1.98226 -0.0155874 -0.739397
LeftToes  -11.2381 1.46665e-006 1.03344e-007
412
root  -6.1727 34.408 -20.3462 55.7935 89.3321 48.1077
RightUpLeg  -13.472 -10.5057 -6.43674
RightLeg  9.68445 8.62186 0.905137
RightFoot  8.40711 -0.0609079 1.2989
RightToes  -31.8434 -0.156819 -0.264571
Spine  -1.68586 -1.10113 1.29889
Spine1  -3.40816 -2.31413 3.08877
HEad  -63.9511 -1.3963 16.3455
LeftShoulder1  -1.94126e-019 -3.10601e-018 -2.51263e-017
LeftArm  -0.529869 21.8485 -83.5853
LeftForeArm  32.0144 -29.9217 -4.73071
LeftHand  -0.340919 -1.54762 5.87021
RightShoulder  -4.96962e-017 0 -2.36833e-017
RightArm  -41.3779 -24.3864 64.2413
RightForeArm  60.8327 9.36488 1.50492
RightHand  -0.209084 -3.35424 -11.281
LeftUpLeg  -9.54957 9.25679 -2.56045
LeftLeg  13.6719 20.8103 3.57913
LeftFoot  -1.19629 -0.00581255 -0.395186
LeftToes  -12.3956 1.46665e-006 1.03344e-007
413
root  -6.08623 34.4535 -20.072 175.115 88.2411 167.598
RightUpLeg  -12.4113 -10.9888 -5.98538
RightLeg  9.23403 7.03514 0.683784
RightFoot  8.11717 -0.0423318 1.04749
RightToes  -30.9114 -0.150247 -0.25825
Spine  -1.59906 -0.835666 1.24862
Spine1  -3.24124 -1.71379 2.96255
HEad  -64.7368 -2.60651 16.3407
LeftShoulder1  -1.94126e-019 -3.10601e-018 -2.51263e-017
LeftArm  -3.08249 21.6694 -82.6164
LeftForeArm  32.1022 -27.2825 -4.28489
LeftHand  -0.370888 -1.32111 6.56965
RightShoulder  -4.96962e-017 0 -2.36833e-017
RightArm  -40.5753 -22.9453 64.2194
RightForeArm  59.2953 9.97008 1.53578
RightHand  -0.196584 -3.50765 -11.3977
LeftUpLeg  -9.15073 8.16943 -1.80373
LeftLeg  12.969 19.8639 3.17859
LeftFoot  -0.388194 -0.000783321 -0.0696879
LeftToes  -13.5723 1.46665e-006 1.03344e-007
414
root  -5.99711 34.494 -19.7987 -177.721 86.2596 174.927
RightUpLeg  -11.4681 -10.9498 -5.59346
RightLeg  8.89777 5.03562 0.460395
RightFoot  7.70269 -0.0211624 0.749457
RightToes  -29.6531 -0.14154 -0.249548
Spine  -1.52578 -0.600695 1.15676
Spine1  -3.10048 -1.17919 2.7666
HEad  -65.1823 -3.72457 16.278
LeftShoulder1  -1.94126e-019 -3.10601e-018 -2.51263e-017
LeftArm  -5.98029 21.3971 -81.4303
LeftForeArm  32.4805 -24.2587 -3.91956
LeftHand  -0.401619 -0.940312 7.49774
RightShoulder  -4.96962e-017 0 -2.36833e-017
RightArm  -38.796 -21.5336 64.5749
RightForeArm  57.253 10.9131 1.54134
RightHand  -0.193141 -3.52452 -11.2784
LeftUpLeg  -8.73348 7.16258 -1.14058
LeftLeg  12.1803 18.9454 2.77577
LeftFoot  0.444424 -0.000287581 0.235756
LeftToes  -14.7824 1.46665e-006 1.03344e-007
415
root  -5.90101 34.5333 -19.5184 -175.59 84.5064 177.212
RightUpLeg  -10.5748 -10.8994 -5.12846
RightLeg  8.47839 3.21868 0.271071
RightFoot  7.31794 -0.00426924 0.505264
RightToes  -28.2701 -0.132192 -0.239765
Spine  -1.45681 -0.335418 1.04684
Spine1  -2.9667 -0.594434 2.54887
HEad  -65.2229 -4.88144 16.0476
LeftShoulder1  -1.94126e-019 -3.10601e-018 -2.51263e-017
LeftArm  -9.24994 21.0651 -80.1774
LeftForeArm  33.2919 -21.0537 -3.5543
LeftHand  -0.402383 -0.801307 7.66869
RightShoulder  -4.96962e-017 0 -2.36833e-017
RightArm  -36.5782 -20.0455 65.2277
RightForeArm  55.2227 11.8878 1.5013
RightHand  -0.195804 -3.45572 -11.045
LeftUpLeg  -8.25836 6.22048 -0.465554
LeftLeg  11.2756 18.2305 2.38673
LeftFoot  1.32788 -0.00431499 0.533932
LeftToes  -15.8209 1.46665e-006 1.03344e-007
